<?xml version="1.0" encoding="UTF-8"?>
<!DOCTYPE svg PUBLIC "-//W3C//DTD SVG 1.1//EN" "http://www.w3.org/Graphics/SVG/1.1/DTD/svg11.dtd">
<svg xmlns="http://www.w3.org/2000/svg" version="1.1" width="279px" height="192px" style="shape-rendering:geometricPrecision; text-rendering:geometricPrecision; image-rendering:optimizeQuality; fill-rule:evenodd; clip-rule:evenodd" xmlns:xlink="http://www.w3.org/1999/xlink">
<g><path style="opacity:1" fill="#ffffff" d="M 145.5,42.5 C 145.824,49.3543 145.491,56.021 144.5,62.5C 141.975,58.1038 138.975,54.1038 135.5,50.5C 135.824,43.6457 135.491,36.979 134.5,30.5C 135.254,28.4947 136.421,27.828 138,28.5C 140.767,33.0346 143.267,37.7013 145.5,42.5 Z"/></g>
<g><path style="opacity:1" fill="#ffffff" d="M 79.5,83.5 C 79.825,75.9809 79.4916,68.6476 78.5,61.5C 84.4577,53.9036 87.291,45.237 87,35.5C 90.3511,41.1951 92.8511,47.1951 94.5,53.5C 92.6521,65.196 87.6521,75.196 79.5,83.5 Z"/></g>
<g><path style="opacity:1" fill="#ffffff" d="M 195.5,61.5 C 194.508,68.6476 194.175,75.9809 194.5,83.5C 185.013,74.1882 180.18,62.8549 180,49.5C 182.333,44.8333 184.667,40.1667 187,35.5C 186.709,45.237 189.542,53.9036 195.5,61.5 Z"/></g>
<g><path style="opacity:1" fill="#ffffff" d="M 98.5,94.5 C 98.829,80.6565 98.4957,66.9898 97.5,53.5C 97.3379,51.4727 97.5045,49.4727 98,47.5C 105.485,58.9233 107.819,71.2566 105,84.5C 103.058,88.0689 100.892,91.4022 98.5,94.5 Z"/></g>
<g><path style="opacity:1" fill="#ffffff" d="M 176.5,53.5 C 175.504,66.9898 175.171,80.6565 175.5,94.5C 167.498,85.562 165.332,75.2286 169,63.5C 170.783,57.9325 173.117,52.5992 176,47.5C 176.495,49.4727 176.662,51.4727 176.5,53.5 Z"/></g>
<g><path style="opacity:1" fill="#ffffff" d="M 134.5,30.5 C 135.491,36.979 135.824,43.6457 135.5,50.5C 119.471,68.4278 112.971,89.4278 116,113.5C 117.399,120.059 119.732,126.059 123,131.5C 109.738,116.781 105.738,99.7805 111,80.5C 116.447,62.6324 124.28,45.9657 134.5,30.5 Z"/></g>
<g><path style="opacity:1" fill="#ffffff" d="M 97.5,53.5 C 98.4957,66.9898 98.829,80.6565 98.5,94.5C 96.1542,97.8708 93.8208,101.204 91.5,104.5C 91.8269,94.985 91.4936,85.6517 90.5,76.5C 94.2386,69.2826 96.5719,61.616 97.5,53.5 Z"/></g>
<g><path style="opacity:1" fill="#ffffff" d="M 176.5,53.5 C 177.424,61.605 179.757,69.2717 183.5,76.5C 182.506,85.6517 182.173,94.985 182.5,104.5C 180.179,101.204 177.846,97.8708 175.5,94.5C 175.171,80.6565 175.504,66.9898 176.5,53.5 Z"/></g>
<g><path style="opacity:1" fill="#ffffff" d="M 78.5,61.5 C 79.4916,68.6476 79.825,75.9809 79.5,83.5C 72.0534,94.4547 70.5534,106.121 75,118.5C 62.508,98.4875 63.6747,79.4875 78.5,61.5 Z"/></g>
<g><path style="opacity:1" fill="#ffffff" d="M 195.5,61.5 C 210.325,79.4905 211.491,98.4905 199,118.5C 203.447,106.121 201.947,94.4547 194.5,83.5C 194.175,75.9809 194.508,68.6476 195.5,61.5 Z"/></g>
<g><path style="opacity:1" fill="#ffffff" d="M 136.5,70.5 C 136.831,91.6733 136.497,112.673 135.5,133.5C 133.246,132.876 131.579,131.543 130.5,129.5C 131.833,112.5 131.833,95.5 130.5,78.5C 131.628,74.9099 133.295,71.5766 135.5,68.5C 136.298,68.9569 136.631,69.6236 136.5,70.5 Z"/></g>
<g><path style="opacity:1" fill="#ffffff" d="M 145.5,42.5 C 155.706,59.6161 162.039,78.1161 164.5,98C 164.325,112.346 158.992,124.346 148.5,134C 147.833,134.667 147.167,134.667 146.5,134C 158.613,118.764 161.446,101.931 155,83.5C 152.014,76.1946 148.514,69.1946 144.5,62.5C 145.491,56.021 145.824,49.3543 145.5,42.5 Z"/></g>
<g><path style="opacity:1" fill="#ffffff" d="M 136.5,70.5 C 140.509,75.1773 143.509,80.5106 145.5,86.5C 145.5,100.833 145.5,115.167 145.5,129.5C 142.881,133.16 139.547,134.493 135.5,133.5C 136.497,112.673 136.831,91.6733 136.5,70.5 Z"/></g>
<g><path style="opacity:1" fill="#ffffff" d="M 90.5,76.5 C 91.4936,85.6517 91.8269,94.985 91.5,104.5C 88.5524,110.589 87.8858,116.922 89.5,123.5C 84.61,126.676 81.4433,125.343 80,119.5C 76.4815,110.023 76.8148,100.689 81,91.5C 84.1774,86.4718 87.3441,81.4718 90.5,76.5 Z"/></g>
<g><path style="opacity:1" fill="#ffffff" d="M 183.5,76.5 C 186.656,81.4718 189.823,86.4718 193,91.5C 197.944,102.736 197.444,113.736 191.5,124.5C 189.257,125.474 186.924,125.808 184.5,125.5C 186.235,118.246 185.568,111.246 182.5,104.5C 182.173,94.985 182.506,85.6517 183.5,76.5 Z"/></g>
<g><path style="opacity:1" fill="#ffffff" d="M 130.5,78.5 C 131.833,95.5 131.833,112.5 130.5,129.5C 124.716,123.833 122.05,116.833 122.5,108.5C 123.525,98.0315 126.192,88.0315 130.5,78.5 Z"/></g>
<g><path style="opacity:1" fill="#ffffff" d="M 55.5,95.5 C 55.5,101.5 55.5,107.5 55.5,113.5C 53.8828,114.038 52.2161,114.371 50.5,114.5C 49.1928,104.718 44.8594,96.5518 37.5,90C 44.0923,89.9801 50.0923,91.8135 55.5,95.5 Z"/></g>
<g><path style="opacity:1" fill="#ffffff" d="M 145.5,86.5 C 151.547,97.7901 153.047,109.79 150,122.5C 148.974,125.239 147.474,127.572 145.5,129.5C 145.5,115.167 145.5,100.833 145.5,86.5 Z"/></g>
<g><path style="opacity:1" fill="#ffffff" d="M 218.5,113.5 C 218.5,107.5 218.5,101.5 218.5,95.5C 223.888,91.8173 229.888,89.984 236.5,90C 229.141,96.5518 224.807,104.718 223.5,114.5C 221.784,114.371 220.117,114.038 218.5,113.5 Z"/></g>
<g><path style="opacity:1" fill="#ffffff" d="M 55.5,95.5 C 57.7966,97.2941 59.9633,99.2941 62,101.5C 65.8966,109.626 70.0632,117.626 74.5,125.5C 73.21,126.408 71.8767,126.241 70.5,125C 67.1667,121.667 63.8333,118.333 60.5,115C 58.9751,113.991 57.3084,113.491 55.5,113.5C 55.5,107.5 55.5,101.5 55.5,95.5 Z"/></g>
<g><path style="opacity:1" fill="#ffffff" d="M 218.5,95.5 C 218.5,101.5 218.5,107.5 218.5,113.5C 216.692,113.491 215.025,113.991 213.5,115C 209.612,119.391 205.279,123.224 200.5,126.5C 200.167,126.167 199.833,125.833 199.5,125.5C 203.937,117.626 208.103,109.626 212,101.5C 214.037,99.2941 216.203,97.2941 218.5,95.5 Z"/></g>
<g><path style="opacity:1" fill="#ffffff" d="M 23.5,120.5 C 26.3128,120.548 28.9795,121.215 31.5,122.5C 32.3279,121.585 33.3279,120.919 34.5,120.5C 37.367,121.774 40.367,122.607 43.5,123C 48.2594,129.761 54.2594,135.094 61.5,139C 62.7932,139.49 64.1266,139.657 65.5,139.5C 65.6495,138.448 65.4828,137.448 65,136.5C 59.9062,131.943 56.0729,126.609 53.5,120.5C 55.9892,120.298 58.3225,120.798 60.5,122C 63.916,126.087 67.916,129.42 72.5,132C 92.8439,126.278 108.844,132.112 120.5,149.5C 120.167,149.833 119.833,150.167 119.5,150.5C 113.552,149.376 107.552,149.21 101.5,150C 87.7655,154.082 73.7655,156.082 59.5,156C 55.1307,155.158 50.7974,154.158 46.5,153C 38.0325,148.182 29.3658,143.848 20.5,140C 21.3279,139.085 22.3279,138.419 23.5,138C 27.1875,137.55 30.8542,137.717 34.5,138.5C 32.0643,132.874 28.5643,127.874 24,123.5C 23.5172,122.552 23.3505,121.552 23.5,120.5 Z"/></g>
<g><path style="opacity:1" fill="#ffffff" d="M 214.5,120.5 C 216.5,120.5 218.5,120.5 220.5,120.5C 217.927,126.609 214.094,131.943 209,136.5C 208.517,137.448 208.351,138.448 208.5,139.5C 212.604,139.116 216.271,137.616 219.5,135C 223.4,131.19 227.066,127.19 230.5,123C 233.633,122.607 236.633,121.774 239.5,120.5C 240.741,121.037 241.908,121.704 243,122.5C 245.319,121.129 247.819,120.462 250.5,120.5C 248.02,126.095 244.52,131.095 240,135.5C 239.517,136.448 239.351,137.448 239.5,138.5C 244.461,136.718 249.128,137.218 253.5,140C 245.263,143.452 237.263,147.452 229.5,152C 219.455,155.619 209.122,156.952 198.5,156C 189.234,153.683 179.9,151.683 170.5,150C 165.113,149.216 159.78,149.382 154.5,150.5C 159.804,138.287 169.471,131.621 183.5,130.5C 189.404,132.124 195.404,132.624 201.5,132C 206.621,129.045 210.955,125.211 214.5,120.5 Z"/></g>
</svg>
